<?xml version="1.0" encoding="utf-8"?>
<!-- Generator: Adobe Illustrator 24.1.2, SVG Export Plug-In . SVG Version: 6.00 Build 0)  -->
<svg version="1.1" id="bb155951-6744-4cb8-87f1-17772a698993"
	 xmlns="http://www.w3.org/2000/svg" xmlns:xlink="http://www.w3.org/1999/xlink" x="0px" y="0px" viewBox="0 0 28 50"
	 style="enable-background:new 0 0 28 50;" xml:space="preserve">
<style type="text/css">
	.st0{fill:url(#SVGID_1_);}
</style>
<g id="f1bbb0e0-0829-4897-a7a7-c6f224fa73dd">
	<linearGradient id="SVGID_1_" gradientUnits="userSpaceOnUse" x1="-8.240308e-06" y1="25" x2="28" y2="25">
		<stop  offset="2.033214e-07" style="stop-color:#00E0D0"/>
		<stop  offset="1" style="stop-color:#4AA3CC"/>
	</linearGradient>
	<path class="st0" d="M14,43.8c1.7,0,3.1-1.4,3.1-3.1c0-1.7-1.4-3.1-3.1-3.1s-3.1,1.4-3.1,3.1c0,0,0,0,0,0
		C10.9,42.3,12.3,43.7,14,43.8z M21.8,0H6.2C2.8,0,0,2.8,0,6.3v37.5C0,47.2,2.8,50,6.2,50h15.6c3.4,0,6.2-2.8,6.2-6.3V6.3
		C28,2.8,25.2,0,21.8,0z M24.9,43.8c0,1.7-1.4,3.1-3.1,3.1c0,0,0,0,0,0H6.2c-1.7,0-3.1-1.4-3.1-3.1c0,0,0,0,0,0v-9.4h21.8L24.9,43.8
		z M24.9,31.3H3.1V10.9h21.8L24.9,31.3z M24.9,7.8H3.1V6.3c0-1.7,1.4-3.1,3.1-3.1c0,0,0,0,0,0h15.6c1.7,0,3.1,1.4,3.1,3.1
		c0,0,0,0,0,0V7.8z"/>
</g>
</svg>
