<?xml version="1.0" encoding="utf-8"?>
<!-- Generator: Adobe Illustrator 24.1.2, SVG Export Plug-In . SVG Version: 6.00 Build 0)  -->
<svg version="1.1" id="b763f9a4-5d2f-4d99-b84e-4cc0a7451cd1"
	 xmlns="http://www.w3.org/2000/svg" xmlns:xlink="http://www.w3.org/1999/xlink" x="0px" y="0px" viewBox="0 0 50 50"
	 style="enable-background:new 0 0 50 50;" xml:space="preserve">
<style type="text/css">
	.st0{fill:url(#SVGID_1_);}
</style>
<linearGradient id="SVGID_1_" gradientUnits="userSpaceOnUse" x1="-4.006786e-03" y1="24.9785" x2="50.0012" y2="24.9785">
	<stop  offset="2.033214e-07" style="stop-color:#00E0D0"/>
	<stop  offset="1" style="stop-color:#4AA3CC"/>
</linearGradient>
<path class="st0" d="M20.3,4.7V0.1c0,0,0.1-0.1,0.1-0.1c2.6-0.1,5.2,0,7.8,0.4c4.4,0.8,8.5,2.8,11.9,5.6c3.9,3.1,6.9,7.3,8.5,12
	c1.2,3.4,1.6,7,1.2,10.6c-0.3,3-1.3,5.9-2.8,8.6l-0.2,0.3c-1-0.3-2-0.5-3-0.8c-0.4-0.1-0.5,0-0.7,0.3c-1.9,4.1-5,7.5-8.9,9.8
	c-4,2.4-8.6,3.5-13.3,3.1c-5.3-0.3-10.3-2.6-14.1-6.3C3.2,40,0.8,35.3,0.2,30.2C-0.5,25,0.6,19.8,3.4,15.4c2.3-3.7,5.6-6.7,9.5-8.6
	c2.2-1.1,4.5-1.8,6.9-2.1L20.3,4.7z M20.3,7.7c-1.3,0.3-2.5,0.6-3.6,1c-4.3,1.4-7.9,4.3-10.3,8.1c-2.7,4-3.8,8.8-3,13.5
	c0.7,5.1,3.5,9.7,7.7,12.7c4.1,3.1,9.3,4.4,14.3,3.6c4.6-0.6,8.7-2.9,11.8-6.3c1.2-1.3,2.2-2.9,2.9-4.6l-0.5-0.2L20.8,29
	c-0.3-0.1-0.6-0.4-0.5-0.7c0,0,0,0,0,0c0-6.6,0-13.2,0-19.8V7.7z M23.4,26.6l21.1,7.2c1.2-2.1,1.9-4.4,2.1-6.8
	c0.2-3.9-0.6-7.7-2.5-11.1c-3.6-7-10.5-11.7-18.3-12.6c-0.8-0.1-1.6-0.1-2.4-0.2L23.4,26.6z"/>
</svg>
