<?xml version="1.0" encoding="utf-8"?>
<!-- Generator: Adobe Illustrator 24.1.2, SVG Export Plug-In . SVG Version: 6.00 Build 0)  -->
<svg version="1.1" id="a6467d10-4d06-4b3c-a046-fba28e9b592f"
	 xmlns="http://www.w3.org/2000/svg" xmlns:xlink="http://www.w3.org/1999/xlink" x="0px" y="0px" viewBox="0 0 50 46"
	 style="enable-background:new 0 0 50 46;" xml:space="preserve">
<style type="text/css">
	.st0{fill:url(#SVGID_1_);}
</style>
<linearGradient id="SVGID_1_" gradientUnits="userSpaceOnUse" x1="-1.768033e-03" y1="22.9987" x2="50.0018" y2="22.9987">
	<stop  offset="2.033214e-07" style="stop-color:#00E0D0"/>
	<stop  offset="1" style="stop-color:#4AA3CC"/>
</linearGradient>
<path class="st0" d="M37.5,0C32.3,0,28.3,3,25,6.1C21.9,2.8,17.7,0,12.5,0C5.5,0.1-0.1,5.8,0,12.7c0,0,0,0.1,0,0.1
	c0,3.7,1.6,6.3,3.1,8.7l19.5,22.8c2.2,2.3,2.6,2.3,4.8,0l19.4-22.7c2-2.4,3.1-5.5,3.1-8.7C50.1,5.9,44.6,0.1,37.5,0
	C37.6,0,37.5,0,37.5,0z M43.8,20.9L25,42.8l-18.8-22c-2.2-3.1-3.1-5-3.1-7.9C3,7.5,7.2,3,12.5,2.8c4.5,0,9.7,4.6,12.5,7.9
	c2.7-3.4,8-7.9,12.5-7.9c5.5,0,9.4,4.7,9.4,10.1C46.9,15.7,46.3,17.9,43.8,20.9z"/>
</svg>
