<svg id="bd404e47-6953-4d20-a42c-53f8bd64a4df" data-name="Слой 1" xmlns="http://www.w3.org/2000/svg" viewBox="0 0 37 45"><defs><style>.b892a3e3-3a2f-4f97-a01f-8e36582873c1{fill:#fff;}</style></defs><path class="b892a3e3-3a2f-4f97-a01f-8e36582873c1" d="M0,22.42c0-6.33,0-12.66,0-19C0,2,0,.5,1.45.12A4.89,4.89,0,0,1,4.94.64c10,6.19,20,12.5,29.91,18.79,2.88,1.83,2.87,4-.05,5.83Q19.88,34.7,4.94,44.13c-1.13.71-2.23,1.27-3.55.51S0,42.59,0,41.22C0,35,0,28.69,0,22.42ZM2.85,2.6V42.07L34.13,22.33Z" transform="translate(0 0)"/></svg>