<?xml version="1.0" encoding="utf-8"?>
<!-- Generator: Adobe Illustrator 24.1.2, SVG Export Plug-In . SVG Version: 6.00 Build 0)  -->
<svg version="1.1" id="b93e2e75-ae29-4541-b2be-429145cb3e17"
	 xmlns="http://www.w3.org/2000/svg" xmlns:xlink="http://www.w3.org/1999/xlink" x="0px" y="0px" viewBox="0 0 154 41"
	 style="enable-background:new 0 0 154 41;" xml:space="preserve">
<path d="M26.3,8.4v0.1l0,0H30l0,0V8.4l-2-5.2L26.3,8.4z M30.9,15L30.9,15h0.4l0.4-0.1l0.3-0.2l0.2-0.3v-0.3l-0.1-0.4l-1.7-4.4V9.2
	l-0.1-0.1H26l0,0v0.1l-1.6,4.4L24.3,14l0.1,0.3l0.2,0.2l0.4,0.2l0.6,0.1l0,0H22l0,0l0.5-0.1l0.4-0.1l0.3-0.2l0.2-0.4l5.1-14h0.1
	l5.6,13.9l0.3,0.4l0.3,0.3l0.4,0.2l0.5,0.1l0,0L30.9,15z M94.9,15L94.9,15h0.2l0.3-0.1l0.3-0.1l0.3-0.2l0.2-0.3l0.1-0.4l0.1-1.4
	v-1.7V9.3V5.7v-2l-0.1-1.8l-0.1-0.4L96,1.2L95.8,1l-0.3-0.1l-0.3-0.1H95V0.7h9.4l0.1,0.8v1v0.9h-0.1L104.3,3l-0.2-0.5l-0.2-0.4
	l-0.3-0.3l-0.4-0.1l-1-0.1h-2.4l-1.3,0.1h-0.1h-0.1l-0.1,0.1V7v0.1v0.1l0.1,0.1h4l0.4-0.1L103,7l0.2-0.3l0.1-0.4l0.1-0.5l0,0v4.1
	l0,0l-0.1-0.4l-0.2-0.8L103,8.4l-0.3-0.2l-0.4-0.1h-4h-0.1l-0.1,0.2V14l0.1,0.1h0.1h0.1l0.9,0.1l0.9,0.1h2.1l0.7-0.1l0.6-0.1L104,14
	l0.3-0.3l0.2-0.3l0.2-0.4l0.1-0.4l0.1-0.4h0.1v0.7l-0.1,1.5V15H94.9z M120.6,15L120.6,15h0.2l0.3-0.1l0.3-0.1l0.3-0.2l0.2-0.3
	l0.1-0.4v-1.7v-4l-0.8-1.7l-0.5-1.1l-0.6-1.1l-0.5-1L119,2.4l-0.6-0.8L117.7,1L117,0.7l-0.7-0.1v0l0.4-0.1h0.4h0.3l0.9,0.1l0.8,0.2
	l0.6,0.4l0.6,0.5l0.5,0.6l0.5,0.7l0.5,0.9l1.7,3.3l0.5-0.7l0.5-0.9l0.6-1l0.6-0.9l0.5-0.9l0.4-0.8l0.1-0.3V1.4l-0.2-0.2L126.2,1
	l-0.8-0.2V0.7h3.7l0,0l-0.6,0.1L128,1.2l-0.4,0.5l-3.4,5.7L124,7.8l-0.1,0.3v0.4v1.9v1.8l0.1,1.6l0.1,0.4l0.2,0.3l0.3,0.2l0.3,0.1
	l0.6,0.1V15H120.6z M3.9,1.2L3.6,1.4L3.5,1.6v0.3v4.8l0.1,0.2l0.3,0.2h0.5h0.8h0.7l0.6-0.2L7,6.6l0.5-0.4l0.4-0.6L8,4.8V4L7.9,3.2
	L7.7,2.4L7.3,1.9L6.7,1.5L6,1.3L5.1,1.2H4.3H3.9z M4,7.8L3.7,7.9L3.5,8.1v0.3v5.1v0.4l0.2,0.3l0.4,0.2l0.6,0.1l0.8,0.1l0.8-0.1
	l0.8-0.3l0.7-0.3l0.6-0.5l0.4-0.6L9,12l0.1-0.9l-0.1-1L8.8,9.4L8.4,8.8L7.9,8.4L7.3,8.1L6.6,7.9L5.9,7.8H5.1H4.4H4z M3.9,15.1
	l-1-0.1H2H1.2h-1l0,0l0.5-0.1L1,14.6l0.3-0.2l0.2-0.3l0.1-0.4v-1.9v-2V5.7v-2V1.9L1.5,1.5L1.3,1.2L1,1L0.7,0.9L0.4,0.8H0.1l0,0h1.1
	h1.1h1.1l1-0.1h0.8l0.7,0.1l0.8,0.1L7.3,1L8,1.2l0.6,0.3L9,1.9l0.4,0.5l0.2,0.7l0.1,0.8L9.6,4.7L9.4,5.4L9,6L8.6,6.5L8,6.9L7.4,7.2
	L8,7.4l0.6,0.3l0.7,0.4l0.6,0.5l0.5,0.6l0.3,0.8l0.1,0.9l-0.1,0.8l-0.2,0.8l-0.4,0.7l-0.6,0.6l-0.7,0.5l-0.9,0.4L6.8,15l-1.3,0.1
	H3.9z M144.7,15.1l-1.2-0.2l-1.1-0.3l-0.1-0.1l-0.1-0.1l-0.1-0.1v-2.7h0.1l0.3,1l0.4,0.8l0.5,0.6l0.6,0.4l0.8,0.2l1,0.1l0.7-0.1
	l0.6-0.2l0.5-0.4l0.4-0.5l0.2-0.8l0.1-0.9l-0.1-0.7l-0.2-0.6l-0.4-0.5l-0.5-0.4l-0.6-0.3L146,8.7l-0.6-0.3L144.6,8L144,7.6l-0.6-0.4
	l-0.5-0.5L142.4,6l-0.2-0.7l-0.1-0.9l0.1-1l0.3-0.8l0.5-0.7l0.6-0.6l0.8-0.4l0.9-0.2l1-0.1l1.4,0.2l1.2,0.3l0.2,0.1l0.2,0.1h0.1v0.1
	L149.3,4h-0.1L149,2.8l-0.3-0.7l-0.4-0.5l-0.6-0.3L147,1h-0.9h-0.5l-0.5,0.1l-0.5,0.3l-0.4,0.3l-0.3,0.5l-0.2,0.6l-0.1,0.7l0.1,0.8
	l0.2,0.6l0.3,0.6l0.5,0.4l0.6,0.4l0.6,0.3l0.6,0.3l0.6,0.3l0.6,0.3l0.6,0.4l0.6,0.4l0.5,0.5l0.3,0.6l0.2,0.7L150,11l-0.1,1l-0.3,0.8
	l-0.5,0.7l-0.7,0.6l-0.8,0.4l-0.9,0.2l-0.9,0.1L144.7,15.1z M81.8,15.4L72,2.2V9v1.6v1.5v1.4l0.1,0.4l0.3,0.3l0.4,0.2l0.5,0.1
	l0.7,0.1V15h-4.5v-0.1l0.5-0.1l0.4-0.1l0.4-0.2l0.2-0.3l0.1-0.4V12v-2V6V4.8V3.6v-1V1.9L71,1.3l-0.2-0.4l-0.3-0.3l-0.3-0.2l-0.4-0.1
	h-0.3v0l1.3-0.1h0.8l0.7,0.2l0.6,0.3l0.6,0.5L73.8,2l0.7,0.8l6.4,8.5v-7l-0.1-2.2l-0.1-0.5l-0.3-0.4L79.9,1l-0.7-0.2l0,0h4l0,0
	L82.7,1l-0.4,0.1L82,1.3l-0.2,0.3L81.7,2v1.4V5v3.4v1.8V12l0.1,1.8V15.4L81.8,15.4z M50.6,1.3l-0.3,0.1l-0.1,0.2v0.3v5.7v0.3L50.4,8
	l0.3,0.1h0.5L51.9,8l0.7-0.1l0.6-0.3l0.6-0.4l0.5-0.5l0.4-0.6l0.2-0.7L55,4.6l-0.1-0.9l-0.2-0.8l-0.4-0.6l-0.5-0.4l-0.6-0.4
	l-0.7-0.2h-0.8H51L50.6,1.3z M57.3,15.4l-0.7-0.2l-0.7-0.4l-0.6-0.5l-0.6-0.6L54.1,13l-3.2-4l-0.1-0.2l-0.1-0.1l-0.1-0.1l-0.1-0.1
	h-0.1l-0.1,0.2v4.9l0.1,0.4l0.2,0.3l0.3,0.2l0.4,0.1l0.5,0.1l0,0H47l0,0l0.4-0.1l0.3-0.1l0.3-0.2l0.2-0.3l0.1-0.4v-1.9v-2V4.6V3.2
	V1.9l-0.1-0.4L48,1.2L47.7,1l-0.3-0.1l-0.6-0.1l0,0h0.9h1h1.1l1-0.1h0.8l0.9,0.1l0.8,0.1L54.1,1l0.7,0.3l0.6,0.4l0.5,0.5l0.4,0.6
	l0.2,0.8l0.1,0.9l-0.1,0.9l-0.3,0.8l-0.4,0.6l-0.5,0.5l-0.7,0.5l-0.8,0.3L53,8.4l0,0l0,0v0.1l0,0v0.1l2.5,3.3l0.6,0.8l0.7,0.7
	l0.7,0.7l0.7,0.6l0.7,0.3l0.6,0.1v0.1l-0.3,0.1l-0.4,0.1l-0.4,0.1L57.3,15.4z M23.6,40.3L23.6,40.3l0.6-0.2l0.3-0.1l0.3-0.2l0.2-0.3
	l0.1-0.4v-1.3v-1.6v-1.7v-3.1v-1.5v-1.4v-1.3L25,26.8l-0.2-0.3l-0.3-0.2l-0.3-0.1l-0.6-0.1V26h9.5v0.8v1v0.9H33l-0.1-0.4l-0.1-0.4
	l-0.2-0.4l-0.2-0.3L32.1,27l-0.4-0.1h-1h-2.3h-1.3L26.8,27l0,0v0.1v5.2l0.1,0.2H27h4h0.4l0.3-0.3l0.2-0.3l0.1-0.4V31h0.1v4.1H32
	v-0.4l0-0.4l-0.1-0.4l-0.2-0.3l-0.3-0.2L31,33.3h-4h-0.1l0,0v0.1v5.7l0.1,0.2h0.1h0.1h0.9H29h1.7h0.9h0.8l0.3-0.1l0.2-0.1l0.2-0.3
	l0.3-0.9l0.1-0.4l0,0v0.9v1l-0.1,0.9L23.6,40.3z M74.3,40.3L74.3,40.3l0.6-0.2l0.3-0.1l0.3-0.2l0.2-0.3l0.1-0.4l0.1-1.7v-1.9v-2
	L75,31.8l-0.5-1.1l-0.6-1.1l-0.5-1l-0.6-0.9L72.3,27l-0.6-0.6L71,26l-0.8-0.1v-0.1l0.6-0.1h0.6l0.9,0.1L73,26l0.7,0.4l0.6,0.5
	l0.5,0.6l0.4,0.8l0.5,0.9l1.7,3.3l0.5-0.7l0.5-0.9L79,30l0.6-1l0.5-0.9l0.4-0.8l0.1-0.3l-0.1-0.3l-0.1-0.2l-0.3-0.1l-0.4-0.1
	l-0.4-0.1V26h3.6v0.1l-0.5,0.1l-0.5,0.3L81.5,27l-3.4,5.8l-0.2,0.4l-0.1,0.3v2.2v1.8v1.6l0.1,0.4l0.2,0.3l0.3,0.2l0.3,0.1l0.6,0.1
	v0.1L74.3,40.3z M98.8,26.3l-0.9,0.3l-0.8,0.6l-0.7,0.7l-0.6,0.9L95.4,30l-0.2,1.3l-0.1,1.4l0.1,1.1l0.1,1.1l0.3,1l0.4,1l0.5,0.9
	l0.6,0.8l0.7,0.6l0.8,0.5l0.9,0.3l1,0.1l1-0.1l0.9-0.3l0.8-0.4l0.7-0.6l0.6-0.7l0.4-0.8l0.3-1l0.2-1.1v-1.2v-1.1l-0.2-1.1l-0.3-1.1
	l-0.4-1l-0.5-0.9l-0.6-0.8l-0.7-0.6l-0.8-0.5l-0.9-0.3l-1-0.1L98.8,26.3z M98.9,40.4L97.7,40l-1.1-0.5l-1-0.7l-0.8-0.9l-0.7-1
	l-0.5-1.1l-0.3-1.3l-0.1-1.4l0.1-1.4l0.3-1.3l0.5-1.2l0.7-1.1l0.8-0.9l1-0.7l1.1-0.5l1.3-0.4l1.3-0.1l1.3,0.1l1.2,0.3l1.1,0.6l1,0.7
	l0.8,0.9l0.7,1l0.5,1.2l0.3,1.3l0.1,1.4l-0.1,1.3l-0.3,1.2l-0.5,1.1l-0.6,1.1l-0.8,0.9l-1,0.8l-1.1,0.5l-1.3,0.3l-1.4,0.1L98.9,40.4
	z M55.4,40.6l-0.8-2.8l-0.8-2.9L52.9,32l-0.8-2.7l-0.9,2.8L50.3,35l-0.8,2.9l-0.8,2.7l0,0l-0.5-1.5l-0.5-1.5L47.2,36l-0.5-1.6l-1-3
	L45.2,30l-0.4-1.2l-0.4-1.1L44,26.9l-0.2-0.4l-0.3-0.2l-0.3-0.1l-0.6-0.1V26H47v0.1h-0.3h-0.3l-0.3,0.1L46,26.5l-0.1,0.4l0.1,0.4
	l0.6,1.8l0.7,1.9l1.3,3.9l0.6,1.8l1.6-5.5l1.7-5.5l0,0l1.6,5.6l0.9,2.8l0.9,2.7l0.8-2.4l0.8-2.4l0.8-2.4l0.7-2.3v-0.4v-0.3l-0.2-0.2
	l-0.2-0.1h-0.3l-0.6-0.1V26h3.7v0.1H61l-0.3,0.1l-0.3,0.2l-0.3,0.4l-0.2,0.6l-0.3,0.8l-0.4,1l-0.4,1.2l-0.5,1.4l-0.5,1.4l-1,3
	l-0.9,3L55.4,40.6L55.4,40.6z M12.3,40.6L2.5,27.5v6.9V36v1.5v1.4l0.1,0.5l0.3,0.3L3.3,40l0.6,0.1l0.6,0.1v0.1H0.1v-0.1L0.6,40
	L1,39.9l0.4-0.2l0.2-0.3l0.1-0.5v-1.8v-2v-4V30v-1v-1v-0.8l-0.1-0.5l-0.2-0.4L1,26l-0.4-0.2l-0.3-0.1H0v-0.1l1.3-0.1H2l0.6,0.2
	L3.2,26l0.6,0.5l0.6,0.6L5,28l6.4,8.4v-6.9v-1v-1.1l-0.1-0.5L11,26.4l-0.5-0.2l-0.8-0.1V26h4v0.1l-0.5,0.1l-0.4,0.1l-0.3,0.2
	L12.3,27l-0.1,0.4v1.4v1.7v3.4v1.7v1.8l0.1,1.8l0.1,1.6L12.3,40.6z M121.4,26.5l-0.3,0.1l-0.1,0.2v0.3v5.6V33l0.2,0.2l0.3,0.1h0.5
	h0.7l0.6-0.2l0.7-0.3l0.6-0.3l0.5-0.5l0.4-0.6l0.2-0.7l0.1-0.8l-0.1-0.9l-0.2-0.8l-0.3-0.6l-0.5-0.4l-0.6-0.3l-0.7-0.3h-0.8h-0.7
	L121.4,26.5z M128.1,40.7l-0.7-0.3l-0.7-0.4l-0.6-0.5l-0.6-0.6l-0.6-0.7l-3.2-4l-0.2-0.2l-0.1-0.2l-0.1-0.1h-0.1h-0.1v0.1l0,0V34
	v4.8l0.1,0.5l0.2,0.3l0.4,0.3l0.4,0.1l0.5,0.1v0.1h-4.8v-0.1l0.4-0.1l0.3-0.1l0.3-0.2l0.2-0.3l0.1-0.4v-1.9l0.1-2v-3.7l-0.1-1.5
	v-1.4v-1.3l-0.1-0.4l-0.2-0.3l-0.3-0.2l-0.3-0.1H118h-0.2V26h0.8h1h1.1h1.7h0.9l0.9,0.1l0.8,0.2l0.7,0.3l0.6,0.4l0.5,0.5l0.4,0.6
	l0.2,0.8l0.1,1l-0.1,0.8l-0.2,0.7l-0.4,0.6l-0.5,0.5l-0.7,0.4l-0.8,0.3l-0.9,0.3h-0.1h-0.1v0.1l0.1,0.1l2.5,3.3l0.5,0.6l1.1,1.3
	l0.6,0.5l0.6,0.4l0.6,0.3l0.5,0.1l0,0l-0.3,0.2l-0.8,0.1L128.1,40.7z M152.8,41l-1-0.1l-0.9-0.2l-0.8-0.4l-0.8-0.5l-0.7-0.6
	l-0.6-0.7l-4.1-4.7l-0.1-0.1h-0.1v0.1V36v1v1.1V39l0.1,0.4l0.2,0.3l0.3,0.2l0.3,0.1l0.6,0.1v0.1h-4.8v-0.1h0.2h0.3l0.3-0.1l0.3-0.2
	l0.2-0.3l0.1-0.4v-1.3v-1.6l0.1-1.7v-3.1l0.1-1.5v-1.4v-1.3l-0.1-0.4l-0.2-0.3l-0.3-0.2l-0.3-0.1h-0.3h-0.2V26h4.8v0.1l-0.6,0.1
	l-0.3,0.1l-0.3,0.2l-0.2,0.3l-0.1,0.4v1.3V30v1.6V33l1.7-1.7l1.7-1.9l1.5-1.8l0.3-0.3l0.2-0.4v-0.2l-0.1-0.3l-0.2-0.1l-0.4-0.1h-0.5
	V26h3.6v0.1l-0.5,0.1l-0.5,0.3l-0.5,0.4l-0.5,0.5l-4.5,5.1l2,2.4l0.4,0.5l0.5,0.6l0.6,0.7l0.7,0.8l0.8,0.8L151,39l0.8,0.6l0.8,0.5
	l0.8,0.3l0.6,0.2v0.1l-0.4,0.1h-0.4L152.8,41z"/>
</svg>
