<?xml version="1.0" encoding="utf-8"?>
<!-- Generator: Adobe Illustrator 24.1.2, SVG Export Plug-In . SVG Version: 6.00 Build 0)  -->
<svg version="1.1" id="e51f10c7-6f26-45fc-91ed-bda30837f269"
	 xmlns="http://www.w3.org/2000/svg" xmlns:xlink="http://www.w3.org/1999/xlink" x="0px" y="0px" viewBox="0 0 50 42"
	 style="enable-background:new 0 0 50 42;" xml:space="preserve">
<style type="text/css">
	.st0{fill:url(#SVGID_1_);}
</style>
<g id="bb322d70-6d02-484e-bc56-14b3de29ff3f">
	<linearGradient id="SVGID_1_" gradientUnits="userSpaceOnUse" x1="0" y1="20.9853" x2="49.9967" y2="20.9853">
		<stop  offset="2.033214e-07" style="stop-color:#00E0D0"/>
		<stop  offset="1" style="stop-color:#4AA3CC"/>
	</linearGradient>
	<path class="st0" d="M48.6,1.3c-1.8-1.7-4.7-1.7-6.5,0L15.3,26.7c-3.3-0.1-7.8,1-9.8,7.2C4,37.2,0,37,0,37
		c5.1,5.9,14.1,6.7,20.1,1.6c1.6-1.6,2.3-3.8,2-6L48.6,7.5c1.7-1.6,1.8-4.3,0.2-6C48.8,1.4,48.7,1.4,48.6,1.3z M17.9,36.6
		C16.4,38,9.5,41,5.4,38c1-0.9,1.9-2,2.5-3.2c1.3-3.7,5-6,8.9-5.5l2.2,2.1C20,33.2,19.5,35.4,17.9,36.6z M21.2,29.4L19,27.3l3.3-3.1
		l2.2,2.1L21.2,29.4z M46.5,5.4L26.6,24.2l-2.2-2.1L44.3,3.3c0.6-0.6,1.6-0.6,2.2,0C47,3.9,47.1,4.8,46.5,5.4
		C46.5,5.4,46.5,5.4,46.5,5.4z"/>
</g>
</svg>
