<?xml version="1.0" encoding="utf-8"?>
<!-- Generator: Adobe Illustrator 24.1.2, SVG Export Plug-In . SVG Version: 6.00 Build 0)  -->
<svg version="1.1" id="f3fcb44b-dc8e-43d6-9440-012f0febfa59"
	 xmlns="http://www.w3.org/2000/svg" xmlns:xlink="http://www.w3.org/1999/xlink" x="0px" y="0px" viewBox="0 0 14 19"
	 style="enable-background:new 0 0 14 19;" xml:space="preserve">
<style type="text/css">
	.st0{fill:#FFFFFF;}
</style>
<path class="st0" d="M7,0C3.2-0.1,0.1,2.9,0,6.7c0,1.2,0.3,2.5,1,3.5l5.6,8.6C6.7,18.9,6.9,19,7.1,19l0,0c0.2,0,0.4-0.1,0.5-0.3
	l5.4-8.6c0.7-1,1-2.2,1-3.4C13.9,2.9,10.8-0.1,7,0z M12,9.5l-4.9,7.8L2,9.6C1.4,8.7,1.1,7.7,1.1,6.7C1.2,3.5,3.8,1,7,1.1
	c0,0,0,0,0,0c3.1-0.1,5.8,2.4,5.8,5.6C12.8,7.7,12.5,8.7,12,9.5z"/>
<path class="st0" d="M7,3.3c-1.9,0-3.5,1.5-3.5,3.3C3.6,8.6,5.1,10,7,10c1.9,0,3.5-1.4,3.5-3.3c0,0,0,0,0,0C10.4,4.8,8.9,3.3,7,3.3z
	 M7,8.9c-1.3,0-2.3-1-2.3-2.2c0-1.3,1.1-2.3,2.3-2.2c1.3,0,2.3,1,2.3,2.2C9.3,7.9,8.3,8.9,7,8.9z"/>
</svg>
