<svg id="fec78890-f7ef-4ec3-b1da-3c8c1f514d9d" data-name="Слой 1" xmlns="http://www.w3.org/2000/svg" viewBox="0 0 109 53"><path d="M95.41,49.07a2.51,2.51,0,0,0-1-1,2.86,2.86,0,0,0-1.29-.32,2.76,2.76,0,0,0-1.28.32,2.66,2.66,0,0,0-1,1,2.6,2.6,0,0,0-.34,1.32,2.55,2.55,0,0,0,.34,1.3,2.42,2.42,0,0,0,1,1,2.54,2.54,0,0,0,1.3.35,2.44,2.44,0,0,0,1.28-.35,2.25,2.25,0,0,0,1-1,2.66,2.66,0,0,0,.34-1.3A2.7,2.7,0,0,0,95.41,49.07Zm-.36,2.39a2.3,2.3,0,0,1-.82.82,2.08,2.08,0,0,1-1.07.29,2,2,0,0,1-1.07-.29,2.15,2.15,0,0,1-.82-.82A2.1,2.1,0,0,1,91,50.39a2.28,2.28,0,0,1,.28-1.1,2,2,0,0,1,.81-.8,2.1,2.1,0,0,1,1.07-.29,2.13,2.13,0,0,1,1.07.29,2.32,2.32,0,0,1,.82.8,2.27,2.27,0,0,1,.27,1.1A2.21,2.21,0,0,1,95.05,51.46Z"/><path d="M94,51.28a3.63,3.63,0,0,0-.42-.56h0a.66.66,0,0,0-.24-.14,1.07,1.07,0,0,0,.6-.26.79.79,0,0,0,.2-.54.74.74,0,0,0-.13-.42.67.67,0,0,0-.34-.27A2.58,2.58,0,0,0,93,49H92v2.81h.45V50.65h.26a.58.58,0,0,1,.37.09,2.44,2.44,0,0,1,.47.64l.25.45h.55Zm-1-1h-.54V49.4H93a1.32,1.32,0,0,1,.44.05.4.4,0,0,1,.2.14.41.41,0,0,1,.07.23.42.42,0,0,1-.14.32A1.13,1.13,0,0,1,93,50.24Z"/><path d="M38.4,16.62c-1.73,0-2.34,1.6-2.34,3.18h4.68C40.74,18,40.15,16.62,38.4,16.62Z"/><path d="M0,0,10.45,48.65l.79-.41c11.11-5.75,22.21-5.4,29.55-4.1a52,52,0,0,1,13.46,4.23l.29.17.3-.15C68,42.65,78.79,43,85.56,44.27a35.25,35.25,0,0,1,11.69,4.22l.82.54.21-1L109,0ZM28.81,29.66H13.43V13.71h6.12V25.59h9.26Zm9.89.55c-6.27,0-9.6-3.19-9.6-8.52s3.46-8.52,9.26-8.52c6.17,0,9.25,3.9,9.25,8.52a5.63,5.63,0,0,1-.08,1H35.84c0,2.26,1.28,3.65,3.33,3.65,1.74,0,3.08-.48,3.36-1.9h5.11C47,28.08,44.41,30.21,38.7,30.21ZM59,29.69H54l-8-16.12H53l4.31,9.31h.11l4.32-9.31h5.06Zm14.82,0H67.69V13.54h6.12Zm5.66-14.83h0l-2.12,2.53h-.88l1-2.75H75.49V10.93h4Zm8,15.19c-5.62,0-7.7-2.43-7.7-5.38v-.09h5.13c0,1.39,1.12,2.1,2.69,2.1,1.38,0,2.1-.46,2.1-1.32,0-2.3-9.78-.1-9.78-6.6,0-3.47,3.29-5.51,8.43-5.51,4.58,0,7.36,2.24,7.36,4.91H91c0-.77-1-1.54-2.64-1.54S86,17.18,86,17.7c0,2.53,10.23.05,10.23,6.66C96.22,27.54,93.79,30,87.46,30Z"/></svg>