<?xml version="1.0" encoding="utf-8"?>
<!-- Generator: Adobe Illustrator 24.1.2, SVG Export Plug-In . SVG Version: 6.00 Build 0)  -->
<svg version="1.1" id="ba32a1c8-569b-4da4-99cc-099c64826b5e"
	 xmlns="http://www.w3.org/2000/svg" xmlns:xlink="http://www.w3.org/1999/xlink" x="0px" y="0px" viewBox="0 0 41 50"
	 style="enable-background:new 0 0 41 50;" xml:space="preserve">
<style type="text/css">
	.st0{fill:url(#SVGID_1_);}
</style>
<linearGradient id="SVGID_1_" gradientUnits="userSpaceOnUse" x1="0" y1="24.99" x2="41" y2="24.99">
	<stop  offset="2.033214e-07" style="stop-color:#00E0D0"/>
	<stop  offset="1" style="stop-color:#4AA3CC"/>
</linearGradient>
<path class="st0" d="M34.7,0H6.3C2.8,0,0,2.8,0,6.2v37.5C0,47.2,2.8,50,6.3,50h28.4c3.5,0,6.3-2.8,6.3-6.3V6.2C41,2.8,38.2,0,34.7,0
	z M37.8,43.7c0,1.7-1.4,3.1-3.2,3.1H6.3c-1.7,0-3.1-1.4-3.2-3.1V6.2c0-1.7,1.4-3.1,3.2-3.1h28.4c1.7,0,3.1,1.4,3.2,3.1V43.7z
	 M31.5,35.9c0,0.9,0.7,1.6,1.6,1.6s1.6-0.7,1.6-1.6c0-0.9-0.7-1.6-1.6-1.6c0,0,0,0,0,0C32.3,34.3,31.5,35,31.5,35.9
	C31.5,35.9,31.5,35.9,31.5,35.9L31.5,35.9z M31.5,6.2H9.5c-1.7,0-3.1,1.4-3.2,3.1v18.7c0,1.7,1.4,3.1,3.2,3.1h22.1
	c1.7,0,3.1-1.4,3.2-3.1V9.4C34.7,7.6,33.3,6.2,31.5,6.2L31.5,6.2z M31.5,26.5c0,0.9-0.7,1.6-1.5,1.6H11c-0.9,0-1.6-0.7-1.6-1.6
	c0,0,0,0,0,0V10.9c0-0.9,0.7-1.6,1.6-1.6c0,0,0,0,0,0h19c0.9,0,1.6,0.7,1.6,1.6c0,0,0,0,0,0L31.5,26.5z M14.2,37.5h-1.6v-1.6
	c0-0.9-0.7-1.6-1.6-1.6c-0.9,0-1.6,0.7-1.6,1.6v1.6H7.9c-0.9,0-1.6,0.7-1.6,1.6s0.7,1.6,1.6,1.6c0,0,0,0,0,0h1.6v1.6
	c0,0.9,0.7,1.6,1.6,1.6c0.9,0,1.6-0.7,1.6-1.6v-1.6h1.6c0.9,0,1.6-0.7,1.6-1.6C15.8,38.2,15.1,37.5,14.2,37.5
	C14.2,37.5,14.2,37.5,14.2,37.5z M22.1,42.2c0,0.9,0.7,1.6,1.6,1.6s1.6-0.7,1.6-1.6s-0.7-1.6-1.6-1.6c0,0,0,0,0,0
	C22.8,40.6,22.1,41.3,22.1,42.2z M23.6,35.9c0,0.9,0.7,1.6,1.6,1.6c0.9,0,1.6-0.7,1.6-1.6c0-0.9-0.7-1.6-1.6-1.6c0,0,0,0,0,0
	C24.4,34.4,23.7,35.1,23.6,35.9C23.6,35.9,23.6,35.9,23.6,35.9z M30,42.2c0,0.9,0.7,1.6,1.6,1.6c0.9,0,1.6-0.7,1.6-1.6
	c0-0.9-0.7-1.6-1.6-1.6c0,0,0,0,0,0C30.7,40.6,30,41.3,30,42.2C30,42.2,30,42.2,30,42.2z"/>
</svg>
