<?xml version="1.0" encoding="utf-8"?>
<!-- Generator: Adobe Illustrator 24.1.2, SVG Export Plug-In . SVG Version: 6.00 Build 0)  -->
<svg version="1.1" id="a095b73e-08b5-48be-975f-dc3a42dcf34f"
	 xmlns="http://www.w3.org/2000/svg" xmlns:xlink="http://www.w3.org/1999/xlink" x="0px" y="0px" viewBox="0 0 49 50"
	 style="enable-background:new 0 0 49 50;" xml:space="preserve">
<style type="text/css">
	.st0{fill:url(#SVGID_1_);}
</style>
<g id="fbd6356a-472e-406a-afef-290fb579816a">
	<linearGradient id="SVGID_1_" gradientUnits="userSpaceOnUse" x1="0" y1="25.0025" x2="49" y2="25.0025">
		<stop  offset="2.033214e-07" style="stop-color:#00E0D0"/>
		<stop  offset="1" style="stop-color:#4AA3CC"/>
	</linearGradient>
	<path class="st0" d="M42.7,0H6.3C2.8,0,0,2.8,0,6.3v28.1c0,3.5,2.8,6.3,6.3,6.3c0,0,0,0,0,0H19v6.3h-3.2c-0.9-0.1-1.6,0.6-1.7,1.4
		c-0.1,0.9,0.6,1.6,1.4,1.7c0.1,0,0.2,0,0.3,0h19c0.9,0.1,1.6-0.6,1.7-1.4c0.1-0.9-0.6-1.6-1.4-1.7c-0.1,0-0.2,0-0.3,0h-3.2v-6.3
		h11.1c3.5,0,6.3-2.8,6.3-6.2c0,0,0,0,0,0V6.3C49,2.8,46.2,0,42.7,0z M28.5,46.9h-6.3v-6.3h6.3L28.5,46.9z M45.8,34.4
		c0,1.7-1.4,3.1-3.2,3.1H6.3c-1.7,0-3.1-1.4-3.2-3.1v-3.1h42.7V34.4z M45.8,28.1H3.2V6.3c0-1.7,1.4-3.1,3.2-3.1c0,0,0,0,0,0h36.4
		c1.7,0,3.1,1.4,3.2,3.1V28.1z"/>
</g>
</svg>
