<svg id="a605a429-5d5a-47d6-8eea-a88e4b1ce33b" data-name="Слой 1" xmlns="http://www.w3.org/2000/svg" viewBox="0 0 151 24"><defs><style>.b64b4208-24a9-4f93-8356-e5d0dd14d242{fill-rule:evenodd;}</style></defs><path class="b64b4208-24a9-4f93-8356-e5d0dd14d242" d="M12.16,21.92A10.13,10.13,0,0,1,2.36,12a10.14,10.14,0,0,1,9.76-10c3.51,0,6,1.68,8.1,4.3H22.8a11.38,11.38,0,0,0-2.87-3.63A12.67,12.67,0,0,0,12.16,0,12.15,12.15,0,0,0,0,12,12.16,12.16,0,0,0,12.2,24a12.43,12.43,0,0,0,7.51-2.64,15.13,15.13,0,0,0,3.19-3.85H20.31c-2,2.62-4.64,4.41-8.15,4.41Z"/><path class="b64b4208-24a9-4f93-8356-e5d0dd14d242" d="M39,9.36A8.16,8.16,0,0,0,32.39,6a8.88,8.88,0,0,0-8.94,8.76,8.91,8.91,0,0,0,8.94,8.8A7.89,7.89,0,0,0,39,20.22h0v2.94H41.1V6.4H39v3ZM32.28,21.62A6.85,6.85,0,1,1,39,14.77a6.85,6.85,0,0,1-6.68,6.85Z"/><polygon class="b64b4208-24a9-4f93-8356-e5d0dd14d242" points="43.68 23.16 45.97 23.16 45.97 0.48 43.68 0.48 43.68 23.16 43.68 23.16 43.68 23.16"/><polygon class="b64b4208-24a9-4f93-8356-e5d0dd14d242" points="54.59 20.5 48.82 6.4 46.55 6.4 53.48 23.16 55.78 23.16 62.69 6.4 60.46 6.4 54.59 20.5 54.59 20.5 54.59 20.5"/><polygon class="b64b4208-24a9-4f93-8356-e5d0dd14d242" points="63.64 23.16 65.92 23.16 65.92 6.4 63.64 6.4 63.64 23.16 63.64 23.16 63.64 23.16"/><polygon class="b64b4208-24a9-4f93-8356-e5d0dd14d242" points="63.64 4.24 65.92 4.24 65.92 0.48 63.64 0.48 63.64 4.24 63.64 4.24 63.64 4.24"/><path class="b64b4208-24a9-4f93-8356-e5d0dd14d242" d="M75.75,6C73.6,6,72.07,7.11,70.66,8.6h0V6.4H68.54V23.16h2.25V13h0a5.05,5.05,0,0,1,5-5c3.46,0,5.19,3,5.19,6h0v9.23H83.1V13.93h0C83.1,9.58,80.51,6,75.75,6Z"/><polygon class="b64b4208-24a9-4f93-8356-e5d0dd14d242" points="104.3 0.48 93.92 13.49 93.92 0.48 91.67 0.48 91.67 23.16 93.92 23.16 93.92 16.93 96.86 13.32 104.35 23.16 107.2 23.16 98.3 11.54 107.2 0.48 104.3 0.48 104.3 0.48 104.3 0.48"/><polygon class="b64b4208-24a9-4f93-8356-e5d0dd14d242" points="108.03 23.16 110.26 23.16 110.26 0.48 108.03 0.48 108.03 23.16 108.03 23.16 108.03 23.16"/><path class="b64b4208-24a9-4f93-8356-e5d0dd14d242" d="M128.71,10.62a9,9,0,0,0-16.9,4.17,9,9,0,0,0,9,8.76,9.25,9.25,0,0,0,6.29-2.49,9.79,9.79,0,0,0,2.17-3.39h-2.4a6.67,6.67,0,0,1-10.66,2.14,6.61,6.61,0,0,1-2.1-4.24h15.69a9.83,9.83,0,0,0-1.11-5Zm-14.5,3a6.88,6.88,0,0,1,6.62-5.71,6.58,6.58,0,0,1,6.67,5.71H114.21Z"/><polygon class="b64b4208-24a9-4f93-8356-e5d0dd14d242" points="131.48 23.16 133.73 23.16 133.73 6.4 131.48 6.4 131.48 23.16 131.48 23.16 131.48 23.16"/><polygon class="b64b4208-24a9-4f93-8356-e5d0dd14d242" points="131.48 4.32 133.73 4.32 133.73 0.48 131.48 0.48 131.48 4.32 131.48 4.32 131.48 4.32"/><path class="b64b4208-24a9-4f93-8356-e5d0dd14d242" d="M143.6,6c-2.19,0-3.72,1.12-5.15,2.61h0V6.4h-2.16V23.16h2.27V13h0a5.09,5.09,0,0,1,5.08-5c3.43,0,5.25,3,5.25,6h0v9.23H151V13.93h0C151,9.58,148.38,6,143.6,6Z"/></svg>