<svg id="f949c62b-1667-4fee-8962-6acee772b85f" data-name="Слой 1" xmlns="http://www.w3.org/2000/svg" viewBox="0 0 113 69"><path d="M54.71,9.32l3.46,10.56H69.36L60.3,26.4,63.76,37l-9-6.52L45.65,37,49.11,26.4l-9.06-6.52h11.2ZM75.57,24.24A20.87,20.87,0,1,1,54.71,3.54,20.77,20.77,0,0,1,75.57,24.24ZM54.71,0A24.24,24.24,0,1,0,79.15,24.24,24.34,24.34,0,0,0,54.71,0Z"/><path d="M111.52,57.1A1.46,1.46,0,1,0,113,58.55,1.46,1.46,0,0,0,111.52,57.1Zm0,2.7a1.25,1.25,0,1,1,1.21-1.25A1.21,1.21,0,0,1,111.52,59.8Z"/><path d="M111.76,58.65a.44.44,0,0,0,.46-.46c0-.33-.19-.49-.6-.49H111v1.71h.27v-.74h.28l.47.74h.29Zm-.26-.19h-.28v-.54h.35c.18,0,.38,0,.38.26S111.73,58.46,111.5,58.46Z"/><path d="M93.57,56.38v2.44H87.41v2.75h4.23a2.59,2.59,0,0,1,2.6,2.58v2.27A2.59,2.59,0,0,1,91.64,69H84.48V66.56h7.07V64H87.32a2.59,2.59,0,0,1-2.6-2.58V59a2.59,2.59,0,0,1,2.6-2.58Z"/><path d="M107.68,69h-6.24a2.6,2.6,0,0,1-2.61-2.58V59a2.6,2.6,0,0,1,2.61-2.58h6.24v2.44h-6.16v2.81h6.16v2.44h-6.16v2.49h6.16Z"/><path d="M65.51,69H59.27a2.6,2.6,0,0,1-2.61-2.58V59a2.6,2.6,0,0,1,2.61-2.58h6.24v2.44H59.35v2.81h6.16v2.44H59.35v2.49h6.16Z"/><path d="M29.59,56.38h5.93A2.6,2.6,0,0,1,38.12,59V69H35.43V58.82H31V69H28.26V56.38Z"/><path d="M78.14,63.92a2.41,2.41,0,0,0,2.22-2.43V59.15h0V59a2.31,2.31,0,0,0-2.47-2.36H70V68.74h2.82V64.07H75.5l2.2,4.67h3Zm-.61-4.61v2.58H72.82V58.78h4.71Z"/><polygon points="44.28 56.38 47.29 66.88 50.47 56.38 53.54 56.38 49.43 69 45.21 69 41.27 56.38 44.28 56.38"/><path d="M0,59a2.6,2.6,0,0,1,2.6-2.58H9.28v2.44H2.69v7.74H9.28V69H2.6A2.6,2.6,0,0,1,0,66.42V59Z"/><path d="M21.55,56.6H16A2.61,2.61,0,0,0,13.18,59v7.46A2.58,2.58,0,0,0,16,68.74h5.56a2.4,2.4,0,0,0,2.62-2.32V59A2.43,2.43,0,0,0,21.55,56.6Zm-.21,10H15.69V58.78h5.65Z"/></svg>