<?xml version="1.0" encoding="utf-8"?>
<!-- Generator: Adobe Illustrator 24.1.2, SVG Export Plug-In . SVG Version: 6.00 Build 0)  -->
<svg version="1.1" id="bd3c307f-5a4a-4145-a3f1-fccc5bbc7add"
	 xmlns="http://www.w3.org/2000/svg" xmlns:xlink="http://www.w3.org/1999/xlink" x="0px" y="0px" viewBox="0 0 140 21"
	 style="enable-background:new 0 0 140 21;" xml:space="preserve">
<style type="text/css">
	.st0{fill-rule:evenodd;clip-rule:evenodd;}
</style>
<g>
	<path class="st0" d="M135.1,0.7h4.9c-0.5,0.3-0.9,0.9-0.9,1.6v16.3c0,0.6,0.3,1.2,0.9,1.6h-4.9c0.5-0.4,0.8-0.9,0.9-1.6V2.3
		C135.9,1.7,135.6,1.1,135.1,0.7z"/>
	<path class="st0" d="M20.8,7.7C20.1,6,19,4.5,17.6,3.2c-1.6-1.3-3.6-2-5.6-2.1c-5.6,0-8,4.8-8,9.5c0,4.6,2.4,9.2,7.7,9.2
		c2.2,0,4.2-0.9,5.6-2.5v-3.7c0-0.9-0.4-1.7-1.1-2.2h5.6c-0.6,0.6-1,1.4-1,2.2v3.7c-2.5,2.4-5.9,3.7-9.4,3.7C5.2,21,0,16.5,0,10.4
		S5.1,0,11.3,0c3.6-0.1,7.1,1.4,9.5,4.1V7.7z"/>
	<path class="st0" d="M34.6,0.7h5.3c-0.7,0.4-1.1,1.2-1,1.9v11.9c0,3.3,4,4.9,6.9,4.9s6.6-1.6,6.6-4.8v-12c0-0.7-0.2-1.4-0.7-1.9
		h2.9c-0.5,0.5-0.8,1.2-0.8,1.9v12c0,4.3-5.3,6-9,6s-9.3-1.6-9.3-6v-12C35.5,1.9,35.2,1.2,34.6,0.7L34.6,0.7z"/>
	<path class="st0" d="M87.8,7.8c-0.6-1.7-1.6-3.3-3-4.5c-1.5-1.4-3.5-2.1-5.6-2.2c-5.5,0-8.2,4.6-8.2,9.3s2.9,9.3,8.3,9.3
		c4,0,6.9-2.7,8.6-6v3.5C85.4,19.7,82,21,78.6,21c-6.5,0-11.4-4.1-11.4-10.5C67.2,4.2,71.9,0,78.3,0c3.5-0.1,6.9,1.2,9.6,3.5
		C87.8,3.5,87.8,7.8,87.8,7.8z"/>
	<path class="st0" d="M122.1,7.8c-0.6-1.7-1.6-3.3-3-4.5c-1.5-1.4-3.5-2.2-5.6-2.2c-5.5,0-8.3,4.6-8.3,9.4s2.9,9.3,8.3,9.3
		c4,0,6.9-2.7,8.6-6v3.5c-2.5,2.4-5.8,3.7-9.2,3.6c-6.5,0-11.4-4.1-11.4-10.5c0-6.3,4.7-10.4,11.1-10.4c3.5-0.1,6.9,1.2,9.6,3.5
		C122.1,3.6,122.1,7.8,122.1,7.8z"/>
</g>
</svg>
