<svg id="accca4da-fc8a-489e-9f45-9278a24719e7" data-name="Слой 1" xmlns="http://www.w3.org/2000/svg" viewBox="0 0 138 22"><g id="b41332ed-24fd-4a02-81f3-a5fa97a37530" data-name="g2995"><path id="e086ba94-bbe3-444c-88dc-b3336a972af9" data-name="path2997" d="M14,10.42l2.11,3.22,4.25-6.5V21.53H24V.6H20.27Z"/></g><g id="f7198747-fcc0-462d-a88d-0dc113d5dd38" data-name="g2999"><path id="a81465b7-cb6b-4c42-9fda-c13ee8a27394" data-name="path3001" d="M3.7.6H0V21.53H3.67V7.14L12,19.92l2.12-3.26Z"/></g><g id="ee17d62a-8191-44d8-985b-4468bc569bd2" data-name="g3003"><path id="a199c00d-3cda-441b-ae84-0f0b4d2f2fae" data-name="path3005" d="M46,15l3.39,6.49h4.42L42.76.6h-4l5.55,11.1H37l1.92-3.62-2-3.93L27.53,21.53h4.13L35.15,15Z"/></g><g id="ec32924f-8c60-4142-b93d-4a346ff66ce0" data-name="g3007"><path id="b149e5f2-4b23-4e6c-8150-f514d9038955" data-name="path3009" d="M78.29.6H74.62V10.76l3.67,3.54Z"/></g><g id="e5936b39-591f-4a81-8f77-1aae94ad3e5d" data-name="g3011"><path id="ae25a87f-ff31-479e-9346-6423bf250a64" data-name="path3013" d="M60.57.6H56.83V21.53H60.5V5.89L75.56,21.53h2.73V19Z"/></g><g id="b294aa86-4428-4f5d-bb5d-68ff4b26d5b7" data-name="g3017"><g id="bb12e202-55ae-4d4f-883e-5385fb6f566d" data-name="g3023"><path id="e524a37c-e72f-4a9b-bfaf-8d4276aba2d2" data-name="path3025" d="M104,6.41a10.62,10.62,0,0,0-7.47-2.86c-4.83,0-8.82,2.84-9.46,6.53H83C83.51,4.36,89.62.14,96.54.14A15,15,0,0,1,106.83,4Z"/></g><g id="f81d94f4-7c81-4f75-a9ff-805250843768" data-name="g3027"><path id="a0867a10-a6f0-4eca-92e0-7e53233e0eeb" data-name="path3029" d="M96.14,18.61c-4,0-7.46-2.1-8.74-5H83.28C84.64,18.63,90,22,96.37,22a20.77,20.77,0,0,0,4.6-.48c3.19-.75,6.67-2.74,6.67-5.87V10.08H96.1v3.5H104v1.59c0,1.76-2.74,2.78-4.41,3.13a15,15,0,0,1-3,.31Z"/></g><g id="f752703d-cb80-4701-84e6-477decdf7e90" data-name="g3031"><path id="bff4033d-8df0-4c4b-a6e5-d69f0f9974d2" data-name="path3033" d="M138,11.08C138,4.84,132.09,0,124.83,0c-7,0-13.21,4.62-13.21,10.75,0,5.78,4.85,10.41,11.39,11.14V18.4c-4.28-.68-7.51-3.74-7.51-7.42,0-4.18,4.16-7.57,9.28-7.57s9.28,3.39,9.28,7.57c0,3.65-3.18,6.69-7.41,7.4v3.5c6.27-.73,11.35-5.18,11.35-10.8"/></g></g></svg>