<svg id="a36cf8e7-729b-4b49-94f2-0dbd8ae1bb8c" data-name="Слой 1" xmlns="http://www.w3.org/2000/svg" viewBox="0 0 95 34"><path d="M10.48,34a11.6,11.6,0,0,1-7-2.34A14.08,14.08,0,0,1,2.08,30.2,9,9,0,0,1,.51,27.37C-.51,24.29,0,20.24,2,15.8,3.74,12,6.39,8.23,11,3c.68-.76,2.71-3,2.72-3s-.11.19-.24.43a27.5,27.5,0,0,0-2.8,6.46C9.79,10.2,9.9,13,11,15.24a8.16,8.16,0,0,0,3.56,3.56c2.58,1.27,6.36,1.37,11,.3.32-.07,16.07-4.27,35-9.33S95,.57,95,.58L28.16,29.3c-3.62,1.56-4.59,1.95-6.29,2.55A32,32,0,0,1,10.48,34Z" transform="translate(0)"/></svg>