<svg id="f1baad8c-1cdc-4d8c-84c7-fd36adaac03d" data-name="Слой 1" xmlns="http://www.w3.org/2000/svg" viewBox="0 0 114 56"><path d="M61.44.19C61.07.25,60.71,1.6,60,2.31c-.53.5-1.19.47-1.54,1.1-.13.24-.09.64-.24,1-.29.77-1.33.84-1.33,1.68s.87,1.08,1.62,1.73c.59.51.64.87,1.35,1.12s1.51-.46,2.32-.22,1.31.34,1.46,1,0,1.59-.82,1.48A9,9,0,0,0,59.9,11c-1.75.19-3.75.76-3.94,2.68a2.23,2.23,0,0,0,2.54,2.09c.91-.17.48-1.22,1-1.73s4.29,2.28,7.68,2.28a4.45,4.45,0,0,0,3.54-1.45c.1-.08.22-.26.38-.27a1.27,1.27,0,0,1,.47.21c2.73,2.16,4.8,6.5,14.83,6.55a6.83,6.83,0,0,1,4.33,1.86,11.51,11.51,0,0,1,2.52,4.41,23.65,23.65,0,0,0,5.54,7.72c.15.15,2.39,1.87,2.57,2a1,1,0,0,1,.14.62c-.07,1.64-.31,6.41,3.3,6.63.88,0,.65-.57.65-1a4.87,4.87,0,0,1,.29-2.51c.6-1.17-1.29-1.71-1.24-4.23,0-1.89-1.56-1.57-2.38-3a3.83,3.83,0,0,1-.86-2.29c.19-5.73-1.23-9.49-1.94-10.42-.55-.7-1-1-.51-1.3,3-2,3.7-3.78,3.7-3.78,1.6-3.71,3-7.1,5-8.59a14.15,14.15,0,0,1,2.06-1.36,13.2,13.2,0,0,0,3.36-1.9c.85-.82,1.53-2.52.71-3.56-1-1.27-2.77-.26-3.54.19-5.54,3.24-6.35,9-8.27,12.23-1.53,2.62-4,4.55-6.24,4.71a11.18,11.18,0,0,1-5.25-1A26.5,26.5,0,0,1,83,12c-1.17-.89-10.24-9.67-17.59-10,0,0-.92-1.8-1.15-1.83-.53-.07-1.08,1.08-1.48,1.21S61.82.13,61.44.19M29.07,52.61a1.29,1.29,0,0,1-1.28-1.27V28.73H20.23V53.66a2.23,2.23,0,0,0,2.24,2.21H35.68a2.22,2.22,0,0,0,2.23-2.21V28.73H30.36V51.34a1.3,1.3,0,0,1-1.29,1.27M54.38,28.73H42.94a2.45,2.45,0,0,0-2.46,2.44v24.7h7.57V33.21a1.29,1.29,0,0,1,2.57,0V55.87h7.53V33.19A1.26,1.26,0,0,1,59.43,32a1.28,1.28,0,0,1,1.29,1.25V55.87h7.56V31.17a2.45,2.45,0,0,0-2.46-2.44ZM10.12,33.26A1.29,1.29,0,0,0,8.84,32H7.56V45.69H8.84a1.27,1.27,0,0,0,1.28-1.27Zm5.07,15.79H7.56v6.82H0V28.73H15.24a2.42,2.42,0,0,1,2.43,2.45V46.61a2.46,2.46,0,0,1-2.48,2.44m79,.75a2.84,2.84,0,1,0,.05,0Zm3.4,2.86a3.37,3.37,0,1,1-3.41-3.34,3.35,3.35,0,0,1,3.41,3.34" transform="translate(0 0)"/><path d="M93.91,52.45c.52,0,.8-.19.8-.56s-.27-.49-.78-.49h-.15v1.05Zm1.93,2.14h-.9l-1.16-1.52v1.52H93V50.74h.78c1.05,0,1.61.4,1.61,1.15A1.11,1.11,0,0,1,94.64,53l-.06,0ZM81,45.7V33.2a1.29,1.29,0,0,0-2.57,0V45.7Zm0,10.17V49.06H78.4v6.81H70.85V31.17a2.45,2.45,0,0,1,2.45-2.44H86.06a2.45,2.45,0,0,1,2.46,2.44v24.7Z" transform="translate(0 0)"/></svg>