<svg id="f1823ca6-c9cc-4407-9bb5-dcc655dd67bd" data-name="Слой 1" xmlns="http://www.w3.org/2000/svg" viewBox="0 0 162 22"><path d="M26.25,22H0v-.81L19.66,1.32H3.38L2.91,6.27H1.71L2.25.5H26.81v.58l-20,20.11H25l.5-6.24h1.34L26.25,22Zm121.63-6.7H137l-3.5,5.89h6.34V22H127.42v-.81h4.73L144.64,0h.78l12,21.19H162V22H145.68v-.81h5.54l-3.34-5.89Zm-10.4-.82h9.94l-4.83-8.6h-.1l-5,8.6Zm-80.3.81H46.3l-3.5,5.89h6.33V22H36.72v-.82h4.73L53.93,0h.79l12,21.18H71.3V22H55v-.82h5.54l-3.34-5.89Zm-10.57-.81h9.94L51.72,5.87h-.09l-5,8.61ZM88.1,21.19h0V1.32H82.71V.5h18.76l6.75,0c3.61,0,4.53,3,4.53,4.92,0,2.66-.63,4.83-4.51,5.57l-1.3.06,5.69,10.1h4.6V22H106.9l-6.23-10.92h-6.5V21.19h5.39V22H82.71v-.81ZM94.17,1.32h0v8.93l6,0a19.09,19.09,0,0,0,3.07-.26,4.08,4.08,0,0,0,2.48-1.3,4.9,4.9,0,0,0,.93-3.34,3.55,3.55,0,0,0-.94-2.74,4.25,4.25,0,0,0-2.28-1.07,25.37,25.37,0,0,0-3.51-.2Z"/></svg>