<svg id="ea5db793-bc5f-41b0-8274-b5a0df4ede3b" data-name="Слой 1" xmlns="http://www.w3.org/2000/svg" viewBox="0 0 15 14"><defs><style>.a5a69f44-8644-4f61-accd-540f49daaea9{fill:#fff;}</style></defs><path class="a5a69f44-8644-4f61-accd-540f49daaea9" d="M8.79,0c-.17.19-.35.35-.48.53a.92.92,0,0,1-1,.42,3.24,3.24,0,0,0-.46,0l.21.21a2.71,2.71,0,0,1,.05,4c-.31.27-.6.56-.88.85a.73.73,0,0,0,0,1.15c.28.3.62.56.93.84s.72.63,1.05,1a2.79,2.79,0,0,1-.47,4,4.92,4.92,0,0,1-2.37.92,6.9,6.9,0,0,1-3.78-.49A2.41,2.41,0,0,1,0,11.59,2.55,2.55,0,0,1,1.28,8.94a5.46,5.46,0,0,1,2.36-.69l1.09-.07a1.59,1.59,0,0,1-.37-1.85l-.58-.06a3.28,3.28,0,0,1-2.06-.94A3.1,3.1,0,0,1,1.94.93,3.34,3.34,0,0,1,4.1.06C5.61,0,7.11,0,8.62,0ZM4.62,8.7a3.31,3.31,0,0,0-2.3.75,1.82,1.82,0,0,0-.69,2,2.09,2.09,0,0,0,1.09,1.32,3.92,3.92,0,0,0,3.84-.13,1.51,1.51,0,0,0,.67-.72,2,2,0,0,0-.65-2.62A3,3,0,0,0,4.62,8.7ZM2.44,2.85a3,3,0,0,0,.43,1.56A2.22,2.22,0,0,0,5.28,5.62a1.24,1.24,0,0,0,.45-.21,1.37,1.37,0,0,0,.54-.88,5.69,5.69,0,0,0,.05-1.09A3.2,3.2,0,0,0,5,1a1.5,1.5,0,0,0-2.15.26A2.38,2.38,0,0,0,2.44,2.85Z" transform="translate(0)"/><rect class="a5a69f44-8644-4f61-accd-540f49daaea9" x="9.49" y="2.51" width="5.51" height="1.05"/><rect class="a5a69f44-8644-4f61-accd-540f49daaea9" x="9.47" y="2.51" width="5.51" height="1.05" transform="translate(15.26 -9.19) rotate(90)"/></svg>