<svg id="bd23c9de-5172-4844-86aa-0bbe2f5e7050" data-name="Слой 1" xmlns="http://www.w3.org/2000/svg" viewBox="0 0 15 15"><defs><style>.e4b0eca4-cf26-403f-b046-9367449967d0{fill:#fff;}</style></defs><path class="e4b0eca4-cf26-403f-b046-9367449967d0" d="M12.91,0H2.09A2.12,2.12,0,0,0,0,2.14V12.86A2.12,2.12,0,0,0,2.09,15H12.91A2.12,2.12,0,0,0,15,12.86V2.14A2.12,2.12,0,0,0,12.91,0ZM10.52,2.17a.43.43,0,0,1,.42-.41H13s.39,0,.39.38V4.23s-.08.32-.33.32H10.9a.39.39,0,0,1-.38-.39v-2Zm-3,2.48a2.92,2.92,0,0,1,3,2.87,2.92,2.92,0,0,1-3,2.87,2.92,2.92,0,0,1-3-2.87A2.92,2.92,0,0,1,7.52,4.65Zm5.93,8.15a.46.46,0,0,1-.46.44H2s-.43-.08-.43-.42,0-6.5,0-6.5H3A4.52,4.52,0,0,0,4.53,11,4.91,4.91,0,0,0,7.61,12a5.17,5.17,0,0,0,3.44-1.58,5,5,0,0,0,1-4.15h1.42Z"/></svg>