<svg id="ec80cbec-543c-432b-9012-af9289ad09d9" data-name="Слой 1" xmlns="http://www.w3.org/2000/svg" viewBox="0 0 16 16"><defs><style>.a01ef452-66aa-454f-ab2c-032ec070ddf6{fill:#fff;}</style></defs><path class="a01ef452-66aa-454f-ab2c-032ec070ddf6" d="M8,0a8,8,0,1,0,8,8A8,8,0,0,0,8,0Zm6.59,7.63a14.28,14.28,0,0,0-4.74,0c-.16-.38-.33-.75-.51-1.12A9.45,9.45,0,0,0,13,3.74,6.54,6.54,0,0,1,14.59,7.63ZM12,2.77A8,8,0,0,1,8.7,5.23,30.84,30.84,0,0,0,6.38,1.6,6.66,6.66,0,0,1,8,1.39,6.59,6.59,0,0,1,12,2.77ZM5,2.11A30,30,0,0,1,7.38,5.7a21.31,21.31,0,0,1-5.79.73A6.6,6.6,0,0,1,5,2.11ZM1.39,8V7.83A22.28,22.28,0,0,0,8,7c.16.31.31.63.45,1a10.35,10.35,0,0,0-5.56,4.32A6.59,6.59,0,0,1,1.39,8Zm2.55,5.21A9,9,0,0,1,9,9.19a25.94,25.94,0,0,1,1.36,5A6.56,6.56,0,0,1,3.94,13.21Zm7.73.28A26.93,26.93,0,0,0,10.39,8.9,12.94,12.94,0,0,1,14.52,9,6.6,6.6,0,0,1,11.67,13.49Z"/></svg>