<svg id="fceec998-2fd9-4de5-bc53-7da2db9e77ba" data-name="Слой 1" xmlns="http://www.w3.org/2000/svg" viewBox="0 0 130 70"><g id="e9430e93-f6a5-4704-8e6f-54a491aeff0d" data-name="layer1"><g id="e855de98-8286-4f70-84ac-41859f343725" data-name="g3001"><g id="bc12a5d0-9f99-4961-911f-5e9f49cbeaa2" data-name="Camada_1"><g id="f97dc4a7-0d8d-4c3c-a00a-429d16f8bc39" data-name=" 201448736"><path id="bcdb6fbc-dded-48b7-b3d1-bc2939bc92d6" data-name=" 201449384" d="M77.89,0H130V15a41,41,0,0,0-4.87,1c-2.67,1-10.8,2.42-10.8-2.19s6.85-3.8,6.85-3.8-.7-1.15-3.6-1.72S109.81,7,102.73,12.43,90.89,17.5,90.89,17.5s-4,.34-4-3.69,7-3.45,7-3.45-3.37-2.3-6.62-2.3-6.27,1-10.21,3.22A34.36,34.36,0,0,1,69.42,14V0ZM130,30.39v2.3l0,8.4H69.45l0-8.4V29.58a34.65,34.65,0,0,0,7.66-2.88c3.94-2.18,7.08-3.22,10.21-3.22s6.62,2.3,6.62,2.3-7-.46-7,3.57,4,3.57,4,3.57,4.64.35,11.84-5.06,12.07-4.72,14.85-4.15,3.6,1.73,3.6,1.73-6.85-.81-6.85,3.91,8.13,3.11,10.8,2.19A26.51,26.51,0,0,1,130,30.39Z"/><path id="b1b9e5c6-a85b-4e70-8b92-0b0a57dcf52b" data-name=" 201448928" d="M57.29,56.48h.51a4.48,4.48,0,0,0,2.66-.64,2.21,2.21,0,0,0,.88-1.91,2.09,2.09,0,0,0-.83-1.82,4.58,4.58,0,0,0-2.6-.59h-.62v5Zm68.25,9.46h4.1V70h-4.1ZM51.06,48.59H49.58L31.72,67.78H30.25V48.59h-1.8V67.78h-7.9V48.59h-1.8v21H40.56V67.78h-6.4l3.4-3.56H49.21l-.08,5.4h1.94v-21Zm-11.78,14L49.47,50.94l-.22,11.67Zm-22.12-14H15.39v21h1.77ZM0,48.59v21H5.53a29.38,29.38,0,0,0,4.52-.14c3.44-.63,4.36-3.55,4.36-5.81,0-2.87-1.43-4.71-3.75-5.31a.51.51,0,0,1-.22-.06.29.29,0,0,0,.16,0c1.19-.24,3.18-1.37,3.18-4.44A5.36,5.36,0,0,0,12.32,50a6,6,0,0,0-4.6-1.4Zm1.77,1.79H7.32c1.33,0,2.62,0,3.55.8A3.35,3.35,0,0,1,12,53.8a3.71,3.71,0,0,1-1.06,2.75c-1,1-2.46,1-3.88,1H1.77V50.38Zm0,8.85H6.93a10.34,10.34,0,0,1,2.77.29,4.13,4.13,0,0,1,2.94,4.24,3.68,3.68,0,0,1-3.86,4c-.45,0-1,0-2.28,0H1.77V59.23ZM127,57.93c0,.08,0,.2,0,.37s0,.28,0,.37a12.81,12.81,0,0,1-.25,2.62,9.93,9.93,0,0,1-.79,2.28,11.7,11.7,0,0,1-4.25,4.75,11.36,11.36,0,0,1-14.53-2.08,10.83,10.83,0,0,1-2.15-3.55,9.84,9.84,0,0,1-.38-1.2v8.07h-4l-9.2-14.4v14.4H87.26V61.91c-.1.33-.21.66-.34,1a10.72,10.72,0,0,1-2.38,3.65,11,11,0,0,1-3.71,2.57,11.33,11.33,0,0,1-4.42.89,11.71,11.71,0,0,1-4.55-.87,10.68,10.68,0,0,1-3.68-2.59,11.2,11.2,0,0,1-1.65-2.2,7.14,7.14,0,0,1-.43,1.43,5.8,5.8,0,0,1-3.87,3.43,13.12,13.12,0,0,1-3.56.36H53.14V47.67h4.74a17,17,0,0,1,2.29.12,5.85,5.85,0,0,1,1.51.38,6,6,0,0,1,2.78,2.12,5.46,5.46,0,0,1,1,3.23,5.54,5.54,0,0,1-.57,2.62,3.8,3.8,0,0,1-1.7,1.64,4.74,4.74,0,0,1,1.89,1v-.26a11.79,11.79,0,0,1,.48-3.4,10.64,10.64,0,0,1,1.44-3,11.12,11.12,0,0,1,4.11-3.64,11.44,11.44,0,0,1,5.39-1.29,11,11,0,0,1,4.24.84,11.47,11.47,0,0,1,6.16,6.11,10.38,10.38,0,0,1,.39,1.06V47.67h4.09l9.12,14v-14h4.23v8a11.4,11.4,0,0,1,3.15-5.24A10.7,10.7,0,0,1,111.49,48a12.23,12.23,0,0,1,4.45-.78A10.79,10.79,0,0,1,122.1,49a11,11,0,0,1,4,5.05h-5.25a6,6,0,0,0-2.25-1.78,6.81,6.81,0,0,0-2.9-.6,6.44,6.44,0,0,0-4.8,2,7.19,7.19,0,0,0,0,9.91,6.7,6.7,0,0,0,11-2h-8.67V57.93Zm-57.44.49a7.12,7.12,0,0,0,.47,2.64,6.85,6.85,0,0,0,1.39,2.22A7.24,7.24,0,0,0,73.75,65a6.25,6.25,0,0,0,2.66.6,6.47,6.47,0,0,0,4.86-2,7.06,7.06,0,0,0,2-5.1,6.74,6.74,0,0,0-6.73-6.75,6.78,6.78,0,0,0-4.91,2,6.46,6.46,0,0,0-2,4.78Zm-12.29,7.3H58.6a5,5,0,0,0,2.89-.66,2.33,2.33,0,0,0,.93-2,2.73,2.73,0,0,0-1-2.26A4.55,4.55,0,0,0,58.6,60H57.29v5.7Z"/></g></g></g></g></svg>