<?xml version="1.0" encoding="utf-8"?>
<!-- Generator: Adobe Illustrator 24.1.2, SVG Export Plug-In . SVG Version: 6.00 Build 0)  -->
<svg version="1.1" id="ad230421-a678-4dd6-a264-ce3216ce087f"
	 xmlns="http://www.w3.org/2000/svg" xmlns:xlink="http://www.w3.org/1999/xlink" x="0px" y="0px" viewBox="0 0 17 17"
	 style="enable-background:new 0 0 17 17;" xml:space="preserve">
<style type="text/css">
	.st0{fill-rule:evenodd;clip-rule:evenodd;fill:#FFFFFF;}
</style>
<path class="st0" d="M2.8,17c-0.5-0.2-1-0.6-1.4-1c-0.3-0.4-0.7-0.7-1.1-1.1c-0.2-0.2-0.3-0.4-0.4-0.7c-0.1-0.3,0-0.7,0.3-0.9
	c1.1-0.8,2.1-1.6,3.2-2.4c0.1-0.1,0.2-0.1,0.4-0.2c0.4-0.2,0.9-0.1,1.2,0.3L6,11.9c2.3-1.6,4.3-3.6,5.9-5.9
	c-0.2-0.3-0.5-0.6-0.8-0.8c-0.5-0.4-0.6-1.1-0.2-1.7c0,0,0,0,0.1-0.1c0.8-1,1.5-2,2.3-3c0.3-0.5,0.9-0.6,1.4-0.3
	c0.1,0,0.1,0.1,0.1,0.1c0.7,0.6,1.3,1.2,1.8,1.8C17,2.5,17.1,3,17,3.5c-0.1,0.7-0.4,1.4-0.8,2.1c-1,1.7-2.2,3.2-3.5,4.7
	c-2.2,2.4-4.7,4.5-7.6,6.2c-0.5,0.2-1,0.4-1.5,0.6H2.8z M5.9,13.3l-1.1-1.2c-0.2-0.3-0.7-0.4-1-0.1c0,0,0,0,0,0
	c-0.7,0.5-1.4,1-2,1.5c-0.2,0.1-0.3,0.4-0.2,0.6c0,0.2,0.1,0.4,0.3,0.5l0.9,0.9c0.1,0.1,0.2,0.2,0.3,0.2c0.5,0.1,1.1,0.1,1.6-0.2
	c1-0.7,2.1-1.4,3.1-2.1c2-1.4,3.8-3.2,5.3-5.1c1-1.2,1.8-2.4,2.6-3.8c0.2-0.3,0.3-0.6,0.3-1c0.1-0.3,0-0.7-0.3-0.9
	c-0.3-0.3-0.6-0.7-1-1c-0.2-0.3-0.6-0.3-0.9-0.1c-0.1,0.1-0.1,0.1-0.2,0.2l-1.4,1.9c0,0.1-0.1,0.2-0.1,0.2c-0.2,0.3-0.1,0.7,0.1,0.9
	l1,1c0.1,0.1,0.2,0.1,0.2,0.3C11.4,8.9,8.8,11.4,5.9,13.3z"/>
</svg>
