<svg id="ef761a98-cd1c-47a3-aef3-72611bc016ff" data-name="Слой 1" xmlns="http://www.w3.org/2000/svg" viewBox="0 0 14 11"><path d="M14,1.3a6.09,6.09,0,0,1-1.65.44A2.78,2.78,0,0,0,13.61.2a6,6,0,0,1-1.82.68A2.91,2.91,0,0,0,9.69,0a2.81,2.81,0,0,0-2.8,3.41A8.28,8.28,0,0,1,1,.51a2.73,2.73,0,0,0,.89,3.71,3,3,0,0,1-1.3-.35A2.82,2.82,0,0,0,2.87,6.63a3,3,0,0,1-1.3,0A2.84,2.84,0,0,0,4.25,8.6,5.86,5.86,0,0,1,0,9.75,8.31,8.31,0,0,0,4.4,11a8,8,0,0,0,8.17-8.26A5.59,5.59,0,0,0,14,1.3Z" transform="translate(0)"/></svg>